HIERARCHY
ROOT Hips
{
	OFFSET -3.958830 18.904000 13.208200
	CHANNELS 6 Xposition Yposition Zposition Zrotation Yrotation Xrotation 
	JOINT LHipJoint
	{
		OFFSET 0.000000 0.000000 0.000000
		CHANNELS 3 Zrotation Yrotation Xrotation
		JOINT LeftUpLeg
		{
			OFFSET 1.800000 -1.400000 0.085000
			CHANNELS 3 Zrotation Yrotation Xrotation
			JOINT LeftLeg
			{
				OFFSET 2.215000 -6.000000 0.000000
				CHANNELS 3 Zrotation Yrotation Xrotation
				JOINT LeftFoot
				{
					OFFSET 2.500000 -6.900000 0.000000
					CHANNELS 3 Zrotation Yrotation Xrotation
					JOINT LeftToeBase
					{
						OFFSET 0.200000 -0.500000 1.950000
						CHANNELS 3 Zrotation Yrotation Xrotation
						End Site
						{
							OFFSET 0.000000 0.000000 0.000000
						}
					}
				}
			}
		}
	}
	JOINT RHipJoint
	{
		OFFSET 0.000000 0.000000 0.000000
		CHANNELS 3 Zrotation Yrotation Xrotation
		JOINT RightUpLeg
		{
			OFFSET -1.800000 -1.400000 0.085000
			CHANNELS 3 Zrotation Yrotation Xrotation
			JOINT RightLeg
			{
				OFFSET -2.215000 -6.000000 0.000000
				CHANNELS 3 Zrotation Yrotation Xrotation
				JOINT RightFoot
				{
					OFFSET -2.500000 -6.900000 0.000000
					CHANNELS 3 Zrotation Yrotation Xrotation
					JOINT RightToeBase
					{
						OFFSET -0.200000 -0.500000 1.950000
						CHANNELS 3 Zrotation Yrotation Xrotation
						End Site
						{
							OFFSET 0.000000 0.000000 0.000000
						}
					}
				}
			}
		}
	}
	JOINT LowerBack
	{
		OFFSET 0.000000 0.000000 0.000000
		CHANNELS 3 Zrotation Yrotation Xrotation
		JOINT Spine
		{
			OFFSET -0.087000 1.940000 -0.288900
			CHANNELS 3 Zrotation Yrotation Xrotation
			JOINT Spine1
			{
				OFFSET 0.000000 1.950000 0.060000
				CHANNELS 3 Zrotation Yrotation Xrotation
				JOINT Neck
				{
					OFFSET 0.000000 0.000000 0.000000
					CHANNELS 3 Zrotation Yrotation Xrotation
					JOINT Neck1
					{
						OFFSET 0.000000 1.600000 0.340000
						CHANNELS 3 Zrotation Yrotation Xrotation
						JOINT Head
						{
							OFFSET 0.000000 1.667000 -0.240000
							CHANNELS 3 Zrotation Yrotation Xrotation
							End Site
							{
								OFFSET 0.000000 0.000000 0.000000
							}
						}
					}
				}
				JOINT LeftShoulder
				{
					OFFSET 0.000000 0.000000 0.000000
					CHANNELS 3 Zrotation Yrotation Xrotation
					JOINT LeftArm
					{
						OFFSET 2.700000 1.550000 -0.730000
						CHANNELS 3 Zrotation Yrotation Xrotation
						JOINT LeftForeArm
						{
							OFFSET 5.450000 0.000000 0.000000
							CHANNELS 3 Zrotation Yrotation Xrotation
							JOINT LeftHand
							{
								OFFSET 3.450000 0.000000 0.000000
								CHANNELS 3 Zrotation Yrotation Xrotation
								JOINT LeftHandIndex1
								{
									OFFSET 0.750000 0.000000 0.000000
									CHANNELS 3 Zrotation Yrotation Xrotation
									End Site
									{
										OFFSET 0.000000 0.000000 0.000000
									}
								}
							}
						}
					}
				}
				JOINT RightShoulder
				{
					OFFSET 0.000000 0.000000 0.000000
					CHANNELS 3 Zrotation Yrotation Xrotation
					JOINT RightArm
					{
						OFFSET -2.700000 1.550000 -0.730000
						CHANNELS 3 Zrotation Yrotation Xrotation
						JOINT RightForeArm
						{
							OFFSET -5.450000 0.000000 0.000000
							CHANNELS 3 Zrotation Yrotation Xrotation
							JOINT RightHand
							{
								OFFSET -3.450000 0.000000 0.000000
								CHANNELS 3 Zrotation Yrotation Xrotation
								JOINT RightHandIndex1
								{
									OFFSET -0.750000 0.000000 0.000000
									CHANNELS 3 Zrotation Yrotation Xrotation
									End Site
									{
										OFFSET 0.000000 0.000000 0.000000
									}
								}
							}
						}
					}
				}
			}
		}
	}
}
MOTION
Frames: 8
Frame Time: 0.016667
0.559830 15.589250 -0.797670 1.671324 -2.174648 1.276345 -15.327103 13.420438 3.796098 -1.192482 -6.575354 -21.373804 -9.047552 8.988033 32.076252 -0.501313 6.664111 2.465581 0.609940 -0.050910 0.505650 18.119403 -9.682702 3.324962 -7.716714 4.279885 -36.607302 5.076688 -5.955838 27.094293 -0.103650 -3.470882 3.361050 0.200380 0.392570 0.161210 -3.089290 -3.951081 -8.136064 7.398730 -5.463718 22.527815 0.208925 -3.126777 -2.537745 0.594755 -7.610486 -9.570173 -14.579946 6.888018 23.967644 -3.554410 3.198000 -10.669280 -31.103179 -13.209763 2.176787 -25.352700 -7.765286 -0.155493 -79.791103 -43.887573 31.621318 -3.735068 3.493094 0.716120 0.216210 -0.261050 0.348640 30.882580 16.863136 7.804098 25.090240 -1.103082 -5.914900 18.409463 25.331053 2.273121 1.633207 -1.532403 -0.475460 0.422360 -0.028830 -0.465680 
0.561300 15.557990 -0.804480 1.864005 -2.154129 0.763556 -15.360249 13.376964 3.843828 -1.489863 -6.968456 -21.684905 -8.825659 9.226931 33.711313 -0.442599 6.912702 2.374346 0.594780 -0.073160 0.525030 18.106123 -9.562549 3.404623 -8.538669 4.475789 -37.731521 5.353763 -6.681148 30.242063 -0.186623 -3.954972 3.179000 0.180640 0.371730 0.158640 -3.024408 -4.080393 -8.236186 7.095784 -5.370814 23.581856 0.475863 -3.049965 -3.103557 0.753597 -7.545714 -9.721018 -14.612052 6.847761 24.609546 -4.154880 3.456380 -11.176990 -31.602499 -13.556025 2.173395 -25.594973 -7.433451 -0.681006 -76.450091 -42.084273 28.255374 -3.708935 3.444894 0.739230 0.200460 -0.237640 0.332450 31.133777 17.269488 7.966673 25.422074 -1.105195 -6.141255 17.661273 25.196384 2.145763 1.645982 -1.492322 -0.479980 0.427410 -0.027030 -0.477560 
0.561620 15.517810 -0.817600 2.254856 -1.964429 -0.646277 -15.410981 13.374035 3.900856 -1.872917 -7.446481 -21.523878 -8.486153 9.640514 36.300491 -0.292513 7.296099 2.218722 0.598990 -0.078250 0.550480 18.074543 -9.394357 3.513732 -9.752384 4.729937 -39.001250 5.229163 -7.793869 35.622458 -0.365850 -4.819578 2.856322 0.133350 0.299030 0.175790 -2.909647 -4.358926 -8.414974 6.500097 -5.340425 25.986894 0.734174 -3.051120 -4.369331 1.127061 -7.563285 -10.287930 -15.258756 7.134517 26.818564 -4.503180 3.850250 -11.863580 -32.729415 -14.408966 2.397266 -25.874688 -6.424893 -1.755344 -70.070781 -39.118520 22.727144 -3.606222 3.431832 0.778450 0.142830 -0.176230 0.315420 31.673307 18.329179 8.416498 26.372903 -1.138746 -6.628336 16.062150 25.035834 1.915125 1.685069 -1.455768 -0.434080 0.380010 -0.041370 -0.482170 
0.567800 15.472290 -0.829460 2.513824 -1.650476 -2.150292 -15.456484 13.319731 3.964085 -2.052707 -8.051930 -21.580226 -8.310178 10.271797 39.435751 -0.125113 7.792344 2.012968 0.617030 -0.054170 0.579140 18.059976 -9.185004 3.639638 -11.274940 5.031859 -40.145345 5.332683 -9.180506 41.343863 -0.584027 -5.841476 2.495028 0.106900 0.204240 0.160160 -2.832415 -4.622845 -8.614241 6.482582 -5.397968 28.376497 0.789589 -3.078835 -5.645110 1.542513 -7.685590 -10.943043 -16.331651 7.517690 29.504623 -4.503830 3.987090 -12.857860 -33.991642 -15.322007 2.607679 -26.976183 -5.612530 -2.785858 -61.402955 -35.319414 16.513074 -3.475318 3.384779 0.821950 0.065550 -0.115090 0.293000 32.236051 19.490040 8.899991 27.456556 -1.351229 -7.452849 14.232781 26.163560 1.782403 1.712301 -1.426621 -0.393530 0.344270 -0.063800 -0.491510 
0.569640 15.428860 -0.830270 2.718955 -1.435427 -3.257208 -15.497006 13.182145 4.015161 -1.666689 -8.667382 -22.031829 -8.651895 11.293918 42.692358 0.004886 8.495304 1.757529 0.610620 -0.083460 0.614220 18.065731 -8.935916 3.804941 -12.929892 5.511955 -41.466773 5.355462 -10.785120 47.452648 -0.836634 -7.010797 2.094239 0.084110 0.159400 0.153240 -2.790259 -4.787979 -8.827990 6.725476 -5.352131 29.747722 0.581571 -3.083571 -6.546388 1.925104 -7.498615 -11.306941 -16.710583 7.661222 32.027072 -5.205780 4.146180 -13.564000 -35.603735 -16.036915 2.692891 -28.015164 -4.844330 -3.399151 -52.550274 -30.417222 10.787552 -3.403345 3.275017 0.887460 0.025050 -0.077560 0.267090 33.098230 20.217525 9.081075 28.627072 -1.196030 -8.064980 12.566141 26.451009 1.547066 1.712955 -1.370133 -0.408380 0.350920 -0.055630 -0.522430 
0.576860 15.388210 -0.822990 2.615461 -0.929079 -4.158859 -15.506289 12.990963 4.061971 -0.692129 -9.205368 -22.717271 -9.514900 12.665959 45.831054 0.195356 9.238937 1.483221 0.642820 -0.051450 0.640590 18.102282 -8.714505 3.962581 -14.472543 5.999296 -42.461883 5.589187 -12.694774 53.440946 -1.129580 -8.239181 1.695373 0.079490 0.101860 0.166130 -2.838918 -4.814396 -9.027114 7.847919 -5.727014 30.432344 -0.240249 -3.280342 -7.285872 2.289926 -7.269475 -11.522866 -16.927090 7.734720 34.392078 -5.387920 3.984550 -13.672220 -37.403520 -16.428310 2.815026 -29.277789 -3.862419 -3.806841 -43.327237 -25.554323 6.256094 -3.329761 3.224290 0.906320 -0.010610 -0.038360 0.260520 34.052367 20.537012 9.020823 29.703639 -0.987470 -8.508159 11.837998 26.748784 1.421301 1.720936 -1.373971 -0.368890 0.314890 -0.074040 -0.526640 
0.583560 15.345900 -0.804210 2.487684 0.031287 -4.822644 -15.491790 12.765969 4.096358 0.105589 -9.653574 -23.300003 -10.218985 13.979704 48.662496 0.344171 9.958893 1.239610 0.646120 -0.059050 0.667630 18.160973 -8.546827 4.094835 -16.321869 6.196463 -43.061865 6.282853 -15.093090 58.862076 -1.424048 -9.462092 1.317271 0.075630 0.077570 0.164390 -2.955194 -4.700737 -9.202650 9.231723 -6.321811 29.954788 -1.590164 -3.704788 -7.285735 2.655403 -6.650035 -11.508277 -16.166987 7.649187 36.697751 -5.842230 4.044740 -13.404850 -38.821226 -16.675553 3.065947 -30.398905 -2.832469 -3.909259 -34.522131 -21.055825 3.036934 -3.311561 3.115520 0.931260 -0.023340 -0.021370 0.246250 34.432376 20.421201 8.602030 31.496651 -0.079311 -8.679053 11.679864 26.593237 1.326483 1.733718 -1.338219 -0.374350 0.314720 -0.074020 -0.545150 
0.581020 15.312790 -0.773050 2.455762 0.953194 -5.330847 -15.461314 12.582899 4.099412 0.648766 -9.798424 -23.596381 -10.549625 15.037360 50.870800 0.444693 10.544990 1.048965 0.626460 -0.096770 0.688810 18.218665 -8.476741 4.174553 -18.167101 6.269346 -42.847996 7.155683 -17.477283 63.078798 -1.673377 -10.496348 1.008914 0.066720 0.074860 0.170570 -3.089690 -4.483170 -9.325067 10.370746 -6.632315 28.792360 -3.152379 -3.970636 -7.027425 3.046982 -5.639552 -11.090838 -14.294155 7.052460 38.495963 -6.795180 4.183920 -12.874710 -40.362550 -16.421558 3.233667 -31.133274 -1.842957 -3.550930 -26.135736 -16.512741 0.830247 -3.356467 2.983104 0.946740 -0.010160 -0.021760 0.222500 34.788109 19.597107 7.875954 33.291581 0.769966 -8.867938 13.103126 27.273530 1.549898 1.732089 -1.316199 -0.395560 0.318650 -0.055870 -0.570540 
